<svg xmlns="http://www.w3.org/2000/svg" viewBox="0 0 512 512"><!--! Font Awesome Pro 6.4.0 by @fontawesome - https://fontawesome.com License - https://fontawesome.com/license (Commercial License) Copyright 2023 Fonticons, Inc. --><path fill="#3B82F6" d="M32 32c-17.7 0-32 14.3-32 32V448c0 17.7 14.3 32 32 32H480c17.7 0 32-14.3 32-32V64c0-17.7-14.3-32-32-32H32zM0 64C0 28.7 28.7 0 64 0H448c35.3 0 64 28.7 64 64V448c0 35.3-28.7 64-64 64H64c-35.3 0-64-28.7-64-64V64zM128 352c-17.7 0-32 14.3-32 32s14.3 32 32 32H256c17.7 0 32-14.3 32-32s-14.3-32-32-32H128zm-11.2-167.9c-11.8-13.3-10.5-33.6 2.8-45.4s33.6-10.5 45.4 2.8l112 125.1c9.2 10.3 10.9 25.1 4.5 37.3s-19 19.3-32.5 18.2l-128-10.5c-17.6-1.5-30.8-16.9-29.4-34.5s16.9-30.8 34.5-29.4l79.4 6.5L116.8 184.1z"/></svg>
